<?xml version="1.0" encoding="utf-8"?>
<!-- Generator: Adobe Illustrator 19.0.0, SVG Export Plug-In . SVG Version: 6.00 Build 0)  -->
<svg version="1.1" id="Layer_1" xmlns="http://www.w3.org/2000/svg" xmlns:xlink="http://www.w3.org/1999/xlink" x="0px" y="0px"
	 viewBox="0 0 606.5 291.8" style="enable-background:new 0 0 606.5 291.8;" xml:space="preserve">
<style type="text/css">
	.st0{opacity:0.95;}
	.st1{fill:#FFFFFF;}
</style>
<g class="st0">
	<path id="XMLID_7_" class="st1" d="M41.2,0.1c0,0-2,0-9.7,0l-0.9,0c-5.2,0-10.1,1.3-14.3,3.6c8.9,3.5,32,10.3,29.3,35.3
		C39.7,27.4,25.9,14.4,3,17.7c-1.9,4-3,8.5-3,13.2l0,6.7c8.5-1.6,28.7,0.3,32.3,20.7C23.9,46.2,9.9,44.9,0.1,47.8l0.1,26.1
		c7.3,0,13.8,0,30.7-0.1l12.2,0C60,73.7,73.7,59.8,73.7,42.9l0-12.2C73.6,13.8,73.6,12.9,73.5,0L41.2,0.1z"/>
	<g>
		<path id="XMLID_6_" class="st1" d="M74.3,231.1c0,0-32.7,0.1-36.8,0.1c-26.2,0.1-36.8-10.9-36.9-35.5C0.5,190.8,0.2,84,0.2,84
			l73.6-0.2L74.3,231.1z"/>
		<path class="st1" d="M85.5,291.8l-0.7-207l53.8-0.2l0.1,22.2c7.4-9.3,14.2-15.7,20.4-19c8.4-4.5,17.6-6.7,27.8-6.7
			c20.1-0.1,35.6,7.6,46.6,22.9c11,15.3,16.6,34.3,16.6,56.8c0.1,24.9-5.8,44-17.8,57.2c-11.9,13.2-27,19.8-45.3,19.8
			c-8.8,0-16.9-1.4-24.2-4.4c-7.3-3-13.8-7.4-19.6-13.4l0.2,71.6L85.5,291.8z M142.7,160.1c0,11.9,2.6,20.7,7.6,26.4
			c5,5.7,11.3,8.6,18.9,8.5c6.7,0,12.3-2.8,16.8-8.3c4.5-5.5,6.7-14.9,6.7-28.1c0-12.1-2.4-21-7.1-26.7c-4.7-5.7-10.5-8.5-17.3-8.5
			c-7.3,0-13.5,2.9-18.3,8.7C145.1,137.8,142.7,147.2,142.7,160.1z"/>
		<path class="st1" d="M315.8,129l-54.9,0.1c0-8.3,5-22.9,8.9-28.4c3.9-5.5,9.5-10.3,16.8-14.4c5.3-2.9,12.5-5.2,21.7-6.8
			c9.2-1.6,19.2-2.5,29.9-2.5c17.2-0.1,31.1,0.9,41.5,2.8c10.5,1.9,19.2,5.9,26.2,12c4.9,4.2,8.8,10.2,11.6,18
			c2.9,7.8,4.3,15.2,4.3,22.2l0.2,66.2l0.1,31.9l-53.3,0.2c0-4.9,0.9-14,0.3-18.4c-7.5,7.3-15,12.5-22.4,15.6
			c-10.2,4.2-22,6.3-35.4,6.3c-17.9,0.1-31.5-4-40.8-12.3c-9.3-8.2-14-18.5-14-30.6c0-11.4,3.3-20.8,9.9-28.1
			c6.7-7.4,19-12.9,36.9-16.5c21.5-4.4,35.5-7.5,41.9-9.2c6.4-1.8,13.2-4.1,20.3-6.9c0-7.1-1.5-12-4.4-14.8
			c-2.9-2.8-8.1-4.2-15.4-4.2c-9.4,0-16.5,1.6-21.2,4.6C320.9,118,318,122.5,315.8,129z M365.7,159c-7.9,2.8-16.1,5.4-24.7,7.6
			c-11.7,3.1-19,6.2-22.1,9.3c-3.2,3.1-4.8,6.6-4.8,10.6c0,4.5,1.6,8.2,4.8,11.1c3.2,2.9,7.8,4.3,13.9,4.3c6.4,0,12.3-1.6,17.8-4.7
			c5.5-3.1,9.4-6.9,11.7-11.4c2.3-4.5,3.4-10.3,3.4-17.4L365.7,159z"/>
		<path class="st1" d="M552,170.9l54.5,0c0,7.3-7.7,27.4-14.6,35.7c-6.8,8.3-15.6,14.8-26.3,19.5c-10.7,4.6-24.2,7-40.7,7
			c-15.9,0.1-29.2-1.4-39.8-4.3c-10.6-2.9-19.7-7.7-27.4-14.3c-7.6-6.6-13.6-14.4-18-23.3c-4.4-8.9-6.6-20.8-6.6-35.5
			c-0.1-15.4,2.5-28.3,7.8-38.5c3.8-7.5,9.1-14.3,15.7-20.3c6.7-6,13.5-10.5,20.6-13.4c11.2-4.6,25.5-7,43-7.1
			c24.5-0.1,43.1,4.2,56,13c12.9,8.7,27.1,28.6,27.2,45.5l-54.1,0.2c-1.7-6.4-4.8-11.2-9.3-14.4c-4.5-3.2-10.5-4.8-18-4.8
			c-9.5,0-17.2,3.5-23,10.3c-5.9,6.8-8.8,17.2-8.7,31c0,12.3,3,21.6,8.8,28c5.9,6.4,13.3,9.5,22.3,9.5c7.5,0,13.9-2,19-5.8
			C545.7,184.8,549.5,178.9,552,170.9z"/>
	</g>
</g>
</svg>
