<?xml version="1.0" encoding="utf-8"?>
<!-- Generator: Adobe Illustrator 19.0.0, SVG Export Plug-In . SVG Version: 6.00 Build 0)  -->
<svg version="1.1" id="Layer_1" xmlns="http://www.w3.org/2000/svg" xmlns:xlink="http://www.w3.org/1999/xlink" x="0px" y="0px"
	 viewBox="0 0 85.7 78.2" style="enable-background:new 0 0 85.7 78.2;" xml:space="preserve">
<style type="text/css">
	.st0{fill:#FFFFFF;}
</style>
<g id="XMLID_1_">
	<path id="XMLID_7_" class="st0" d="M18.6,9.3c0,5.1-4.2,9.3-9.3,9.3S0,14.5,0,9.3C0,4.2,4.2,0,9.3,0S18.6,4.2,18.6,9.3"/>
	<path id="XMLID_6_" class="st0" d="M18.6,39.1c0,5.1-4.2,9.3-9.3,9.3S0,44.3,0,39.1c0-5.1,4.2-9.3,9.3-9.3S18.6,34,18.6,39.1"/>
	<path id="XMLID_5_" class="st0" d="M18.6,68.9c0,5.1-4.2,9.3-9.3,9.3S0,74.1,0,68.9c0-5.1,4.2-9.3,9.3-9.3S18.6,63.8,18.6,68.9"/>
	<polyline id="XMLID_4_" class="st0" points="85.7,14.9 29.8,14.9 29.8,3.7 85.7,3.7 	"/>
	<polyline id="XMLID_3_" class="st0" points="85.7,44.7 29.8,44.7 29.8,33.5 85.7,33.5 	"/>
	<polyline id="XMLID_2_" class="st0" points="85.7,74.5 29.8,74.5 29.8,63.3 85.7,63.3 	"/>
</g>
</svg>
